<svg xmlns="http://www.w3.org/2000/svg" viewBox="0 0 512 512">
  <rect width="512" height="512" rx="100" fill="#2d5016"/>
  <circle cx="256" cy="256" r="200" fill="#4a7c2f"/>
  <circle cx="256" cy="256" r="160" fill="#2d5016"/>
  <!-- Blatt oben -->
  <ellipse cx="256" cy="160" rx="45" ry="80" fill="#7aab52" transform="rotate(-15 256 160)"/>
  <ellipse cx="256" cy="160" rx="45" ry="80" fill="#5a9a3a" transform="rotate(15 256 160)"/>
  <!-- Blatt links -->
  <ellipse cx="170" cy="240" rx="65" ry="35" fill="#7aab52" transform="rotate(-30 170 240)"/>
  <!-- Blatt rechts -->
  <ellipse cx="342" cy="240" rx="65" ry="35" fill="#7aab52" transform="rotate(30 342 240)"/>
  <!-- Stängel -->
  <rect x="248" y="240" width="16" height="120" rx="8" fill="#c4a35a"/>
  <!-- Erde -->
  <ellipse cx="256" cy="370" rx="70" ry="18" fill="#8b6914"/>
  <!-- GPS Pin -->
  <circle cx="380" cy="150" r="35" fill="#c45c1a"/>
  <circle cx="380" cy="143" r="16" fill="white"/>
  <path d="M380 158 L368 178 L380 175 L392 178 Z" fill="#c45c1a"/>
</svg>
